<svg width="129" height="129" viewBox="0 0 129 129" fill="none" xmlns="http://www.w3.org/2000/svg">
<rect x="0.17041" y="0.0103607" width="128.428" height="128.428" fill="#8A1313"/>
<path d="M39.1167 70.9384V57.8475H40.7019V69.5321H46.7872V70.9384H39.1167ZM59.7774 64.3929C59.7774 65.7736 59.5281 66.9668 59.0295 67.9725C58.531 68.9781 57.847 69.7537 56.9777 70.2992C56.1084 70.8446 55.1155 71.1174 53.999 71.1174C52.8825 71.1174 51.8896 70.8446 51.0203 70.2992C50.151 69.7537 49.467 68.9781 48.9685 67.9725C48.4699 66.9668 48.2206 65.7736 48.2206 64.3929C48.2206 63.0122 48.4699 61.8191 48.9685 60.8134C49.467 59.8077 50.151 59.0321 51.0203 58.4867C51.8896 57.9412 52.8825 57.6685 53.999 57.6685C55.1155 57.6685 56.1084 57.9412 56.9777 58.4867C57.847 59.0321 58.531 59.8077 59.0295 60.8134C59.5281 61.8191 59.7774 63.0122 59.7774 64.3929ZM58.2433 64.3929C58.2433 63.2594 58.0537 62.3027 57.6744 61.5229C57.2994 60.7431 56.7902 60.1529 56.1467 59.7523C55.5075 59.3517 54.7916 59.1514 53.999 59.1514C53.2064 59.1514 52.4883 59.3517 51.8449 59.7523C51.2057 60.1529 50.6964 60.7431 50.3172 61.5229C49.9422 62.3027 49.7547 63.2594 49.7547 64.3929C49.7547 65.5264 49.9422 66.4831 50.3172 67.2629C50.6964 68.0428 51.2057 68.633 51.8449 69.0335C52.4883 69.4341 53.2064 69.6344 53.999 69.6344C54.7916 69.6344 55.5075 69.4341 56.1467 69.0335C56.7902 68.633 57.2994 68.0428 57.6744 67.2629C58.0537 66.4831 58.2433 65.5264 58.2433 64.3929ZM71.3918 61.9384C71.2511 61.508 71.0658 61.1223 70.8356 60.7814C70.6098 60.4362 70.3392 60.1422 70.0239 59.8993C69.7128 59.6564 69.3591 59.471 68.9628 59.3432C68.5665 59.2154 68.1318 59.1514 67.6588 59.1514C66.8832 59.1514 66.178 59.3517 65.543 59.7523C64.9081 60.1529 64.4031 60.7431 64.0281 61.5229C63.6531 62.3027 63.4656 63.2594 63.4656 64.3929C63.4656 65.5264 63.6553 66.4831 64.0345 67.2629C64.4138 68.0428 64.9273 68.633 65.575 69.0335C66.2227 69.4341 66.9514 69.6344 67.7611 69.6344C68.5111 69.6344 69.1716 69.4746 69.7426 69.155C70.3179 68.8311 70.7653 68.3752 71.0849 67.7871C71.4088 67.1948 71.5707 66.498 71.5707 65.6969L72.0565 65.7992H68.119V64.3929H73.1048V65.7992C73.1048 66.8773 72.8747 67.8148 72.4145 68.6117C71.9585 69.4085 71.3278 70.0264 70.5224 70.4654C69.7213 70.9 68.8008 71.1174 67.7611 71.1174C66.602 71.1174 65.5835 70.8446 64.7057 70.2992C63.8321 69.7537 63.1503 68.9781 62.6602 67.9725C62.1744 66.9668 61.9315 65.7736 61.9315 64.3929C61.9315 63.3574 62.07 62.4263 62.347 61.5996C62.6283 60.7686 63.0246 60.0612 63.5359 59.4774C64.0473 58.8936 64.6524 58.4462 65.3513 58.1351C66.0501 57.824 66.8193 57.6685 67.6588 57.6685C68.3491 57.6685 68.9926 57.7729 69.5892 57.9817C70.1901 58.1862 70.7249 58.4781 71.1936 58.8574C71.6666 59.2324 72.0608 59.682 72.3761 60.2061C72.6915 60.726 72.9088 61.3034 73.0281 61.9384H71.3918ZM86.8653 64.3929C86.8653 65.7736 86.616 66.9668 86.1174 67.9725C85.6189 68.9781 84.9349 69.7537 84.0656 70.2992C83.1963 70.8446 82.2034 71.1174 81.0869 71.1174C79.9704 71.1174 78.9775 70.8446 78.1082 70.2992C77.2389 69.7537 76.5549 68.9781 76.0564 67.9725C75.5578 66.9668 75.3085 65.7736 75.3085 64.3929C75.3085 63.0122 75.5578 61.8191 76.0564 60.8134C76.5549 59.8077 77.2389 59.0321 78.1082 58.4867C78.9775 57.9412 79.9704 57.6685 81.0869 57.6685C82.2034 57.6685 83.1963 57.9412 84.0656 58.4867C84.9349 59.0321 85.6189 59.8077 86.1174 60.8134C86.616 61.8191 86.8653 63.0122 86.8653 64.3929ZM85.3312 64.3929C85.3312 63.2594 85.1416 62.3027 84.7623 61.5229C84.3873 60.7431 83.8781 60.1529 83.2346 59.7523C82.5954 59.3517 81.8795 59.1514 81.0869 59.1514C80.2943 59.1514 79.5762 59.3517 78.9328 59.7523C78.2936 60.1529 77.7843 60.7431 77.4051 61.5229C77.0301 62.3027 76.8426 63.2594 76.8426 64.3929C76.8426 65.5264 77.0301 66.4831 77.4051 67.2629C77.7843 68.0428 78.2936 68.633 78.9328 69.0335C79.5762 69.4341 80.2943 69.6344 81.0869 69.6344C81.8795 69.6344 82.5954 69.4341 83.2346 69.0335C83.8781 68.633 84.3873 68.0428 84.7623 67.2629C85.1416 66.4831 85.3312 65.5264 85.3312 64.3929Z" fill="white"/>
</svg>
